{"glyphs":{"A":{"ha":710,"x_min":56,"x_max":792,"o":"m 85 -46 q 58 -15 60 -32 q 76 43 56 1 q 142 172 97 85 q 187 270 175 235 q 200 321 199 306 q 201 340 201 336 q 204 360 199 353 q 222 374 210 368 q 254 399 229 381 q 293 442 279 417 q 322 501 306 471 q 364 578 338 532 q 435 700 390 625 q 501 810 463 749 q 576 921 539 871 q 608 951 592 940 q 638 963 625 963 q 699 947 668 963 q 753 907 729 931 q 785 863 776 883 q 790 815 792 851 q 785 728 789 779 q 775 618 781 676 q 763 483 771 561 q 747 321 754 406 q 735 158 739 236 q 735 21 731 79 q 735 -3 736 8 q 733 -21 733 -14 q 697 -28 725 -29 q 643 -19 669 -28 q 614 1 617 -11 q 608 8 610 6 q 608 35 607 11 q 613 125 610 60 l 619 338 l 601 336 q 556 333 589 336 q 485 326 524 331 q 415 316 447 321 q 371 307 383 311 q 341 290 358 307 q 308 247 324 274 q 288 206 303 228 q 274 178 274 185 q 258 161 264 171 q 251 151 251 151 q 240 110 251 143 q 209 38 228 78 q 171 -31 190 -1 l 133 -83 l 85 -46 m 417 432 q 432 435 417 432 q 469 441 447 438 q 507 444 490 444 q 560 457 539 453 q 596 462 582 461 q 618 458 610 463 q 628 450 624 451 q 633 449 633 449 q 639 478 635 451 q 649 543 643 504 q 660 624 654 582 q 669 703 665 667 q 675 761 674 740 q 674 809 676 788 q 671 831 671 831 q 640 801 663 831 q 587 722 617 771 q 528 615 557 672 q 502 574 514 589 q 483 558 490 558 q 469 537 481 556 q 444 495 457 518 q 422 453 431 472 q 417 432 413 435 z "},"B":{"ha":726,"x_min":100,"x_max":821,"o":"m 282 -100 q 212 -22 222 -61 q 239 40 201 17 q 272 42 247 46 q 308 25 296 38 q 372 -6 336 0 q 458 1 407 -12 q 548 47 517 19 q 618 121 579 74 q 659 194 647 158 q 670 260 671 231 q 656 306 669 290 q 569 373 621 354 q 435 369 518 392 q 406 364 425 368 q 371 356 386 360 q 354 353 356 353 q 339 350 344 350 q 326 337 333 350 q 303 283 318 324 q 257 157 288 242 q 208 37 228 72 q 172 5 188 1 q 138 35 157 8 q 113 78 126 54 q 114 126 100 101 q 125 149 121 139 q 136 186 129 160 q 163 259 143 207 q 211 381 183 311 q 269 526 239 451 q 328 668 300 601 q 376 781 357 735 q 400 843 396 824 q 397 864 404 863 q 393 877 397 871 q 390 889 389 883 q 415 904 390 894 q 467 922 439 914 q 507 928 494 931 q 524 928 514 928 q 533 935 533 929 q 560 938 538 935 q 608 938 582 940 q 761 884 701 929 q 819 740 821 839 q 800 679 818 717 q 755 604 782 642 q 697 539 728 567 q 659 508 679 524 q 624 481 639 492 q 610 471 610 471 q 621 467 610 471 q 644 458 632 463 q 745 399 708 435 q 797 299 782 363 q 798 247 803 278 q 785 187 793 217 q 767 136 776 157 q 751 116 757 126 q 746 106 746 106 q 735 84 746 103 q 708 43 724 65 q 679 4 693 21 q 640 -27 665 -7 q 584 -67 614 -47 q 528 -96 554 -86 q 441 -119 489 -112 q 350 -120 393 -125 q 282 -100 307 -115 m 382 476 q 405 481 382 476 q 456 492 428 486 q 497 504 483 499 q 517 515 504 508 q 544 536 531 522 q 586 577 564 554 q 630 626 608 600 q 667 683 651 653 q 701 756 699 733 q 686 796 704 778 q 651 819 674 811 q 603 827 629 826 q 554 821 578 828 q 526 808 536 815 q 517 785 517 800 q 509 759 517 772 q 494 739 501 746 q 485 720 493 729 q 478 711 478 711 q 460 677 478 706 q 424 596 443 649 q 390 510 399 536 q 382 476 382 483 z "},"O":{"ha":701,"x_min":143,"x_max":865,"o":"m 260 -49 q 178 22 208 -11 q 146 85 149 54 q 147 153 143 110 q 156 238 150 196 q 165 300 161 279 q 172 319 172 307 q 171 331 171 331 q 181 367 169 338 q 201 444 192 397 q 255 584 229 528 q 306 681 281 640 q 356 754 331 721 q 463 847 413 813 q 557 901 514 882 q 608 928 585 918 q 647 931 632 938 q 779 863 725 914 q 851 714 833 811 q 863 603 861 653 q 856 506 865 554 q 820 401 846 458 q 749 268 794 344 q 624 80 692 156 q 490 -35 557 4 q 362 -77 422 -74 q 260 -49 301 -81 m 371 43 q 423 56 403 47 q 465 88 443 64 q 528 157 488 111 q 588 228 564 199 q 630 288 613 257 q 663 360 647 318 q 699 469 679 403 q 715 531 710 511 q 721 565 719 551 q 722 603 722 579 q 721 678 721 628 q 711 731 719 701 q 692 774 703 761 q 650 800 678 789 q 592 797 622 811 q 550 769 575 790 q 499 718 525 747 q 449 660 472 689 q 411 607 425 631 q 397 574 397 583 q 397 567 397 574 q 390 553 396 560 q 353 489 372 533 q 317 388 333 444 q 289 274 300 331 q 275 171 278 217 q 275 133 275 149 q 278 106 275 118 q 290 81 282 94 q 324 53 299 67 q 371 43 350 39 z "},"L":{"ha":592,"x_min":124,"x_max":646,"o":"m 269 -85 q 180 -27 214 -71 q 125 78 146 17 q 124 128 124 96 q 128 188 125 160 q 133 219 131 215 q 138 236 138 222 q 140 255 136 242 q 147 282 143 268 q 154 309 154 299 q 153 325 154 319 q 157 334 153 325 q 167 349 161 343 q 174 365 175 357 q 174 374 174 374 q 176 389 172 379 q 185 404 181 399 q 192 416 188 407 q 197 425 197 425 q 203 447 197 429 q 218 487 210 465 q 234 526 226 508 q 246 550 242 544 l 246 553 q 261 582 251 567 q 268 605 263 589 q 281 636 274 621 q 319 712 296 669 q 368 797 342 754 q 419 873 394 839 q 461 924 443 907 q 509 962 485 950 q 554 953 533 974 q 571 924 564 943 q 577 890 578 906 q 565 872 576 874 q 539 841 556 867 q 502 781 522 815 q 463 709 482 746 q 426 643 443 672 q 393 573 408 603 q 378 543 378 543 q 375 536 376 539 q 372 531 374 533 q 338 452 351 488 q 310 378 324 417 q 300 358 301 368 q 299 349 299 349 q 294 342 296 350 q 289 325 293 335 q 281 308 282 319 q 279 285 279 296 q 261 224 269 260 q 249 156 253 189 q 247 106 246 124 q 260 66 250 82 q 290 40 271 50 q 318 28 306 33 q 340 24 331 24 q 369 24 351 22 q 417 32 386 26 l 415 32 q 453 40 433 35 q 492 49 474 44 q 524 55 508 51 q 547 61 539 58 q 597 75 578 69 q 622 75 615 81 q 638 54 629 69 q 642 26 646 39 q 614 -2 639 19 q 557 -45 589 -24 q 499 -75 525 -67 q 424 -92 471 -87 q 335 -94 378 -97 q 269 -85 292 -92 z "},"F":{"ha":647,"x_min":101,"x_max":917,"o":"m 722 418 q 688 405 714 413 q 601 390 663 397 q 550 388 583 389 q 478 385 517 386 q 409 384 440 383 q 365 388 378 385 q 359 381 365 388 q 353 363 353 374 q 329 313 343 346 q 299 242 315 281 q 269 165 283 203 q 247 98 256 126 q 238 58 238 69 q 222 1 225 25 q 213 -26 219 -22 q 187 -47 208 -47 q 154 -35 165 -47 q 113 5 124 -19 q 111 60 101 29 q 126 113 115 78 q 149 192 136 149 q 177 276 163 235 q 206 343 192 317 q 225 391 221 369 q 236 431 229 413 q 236 451 235 446 q 247 468 238 456 q 265 488 254 474 q 289 533 275 503 q 302 572 293 547 q 319 622 311 596 q 335 665 328 647 q 342 685 342 683 q 350 706 344 690 q 358 732 356 722 q 367 764 364 751 q 365 776 371 776 q 321 772 354 774 q 297 769 304 769 q 283 767 289 768 q 258 769 269 765 q 247 786 247 774 q 263 832 250 808 q 297 857 276 856 q 319 862 307 860 q 351 869 331 864 q 398 873 378 875 q 426 868 418 871 q 438 877 433 872 q 444 888 443 882 q 469 926 451 913 q 508 940 488 939 q 540 928 528 940 q 547 890 553 917 q 551 883 549 886 q 572 884 553 881 q 638 897 590 888 q 701 903 663 900 q 761 899 739 906 q 803 902 785 903 q 829 907 822 901 q 872 899 858 901 q 893 890 885 897 q 897 880 899 885 q 896 875 896 875 q 894 876 890 878 q 906 868 899 874 q 916 851 915 864 q 915 824 917 838 q 911 807 913 811 q 897 792 910 794 q 835 792 885 790 q 724 798 775 800 q 597 785 674 796 q 545 777 567 783 q 524 771 524 771 q 504 752 518 771 q 478 697 490 733 q 459 657 472 688 q 432 591 446 626 q 407 528 418 556 q 393 499 396 501 q 453 493 413 493 q 544 497 494 493 q 639 504 594 500 q 682 511 660 508 q 713 513 704 514 q 738 491 729 511 q 743 449 746 471 q 722 418 740 428 z "},"Z":{"ha":725,"x_min":58,"x_max":936,"o":"m 164 -79 q 108 -71 135 -76 q 71 -39 82 -65 q 71 25 58 -10 q 97 74 83 60 q 147 128 121 99 q 210 194 174 157 q 301 283 247 231 q 436 406 356 335 q 525 484 492 453 q 585 542 558 515 q 643 601 611 568 q 725 688 692 651 q 765 753 758 725 q 770 792 774 781 q 744 809 767 804 q 674 817 722 814 q 516 816 588 824 q 383 797 444 808 q 360 807 374 794 q 347 825 347 819 q 353 844 353 832 q 342 865 353 857 q 342 892 336 879 q 353 911 347 906 q 394 921 364 917 q 457 931 425 925 q 519 936 478 935 q 602 938 560 938 q 669 935 644 938 q 773 923 719 931 q 867 899 826 915 q 921 853 908 883 q 927 796 936 821 q 903 729 918 771 q 847 648 886 699 q 756 542 807 597 q 653 439 706 488 q 513 310 575 367 q 390 201 451 254 q 318 138 351 168 q 246 72 285 108 q 241 43 232 54 q 307 35 250 32 q 357 40 339 36 q 396 49 375 44 q 454 54 417 53 q 574 61 526 58 q 661 64 622 64 q 680 61 672 64 q 701 39 688 58 q 715 19 714 35 q 710 -15 717 3 q 690 -42 703 -32 q 656 -47 681 -42 q 603 -55 632 -51 q 553 -57 575 -58 q 484 -59 535 -56 q 375 -69 433 -62 q 263 -79 324 -78 q 164 -79 201 -81 z "},"T":{"ha":636,"x_min":226,"x_max":919,"o":"m 311 -74 q 269 -50 286 -75 q 254 -8 253 -25 q 267 56 256 14 q 292 140 278 97 q 317 208 306 183 q 327 248 322 231 q 333 271 332 265 q 347 300 338 276 q 361 346 356 324 q 373 388 364 357 q 395 461 382 419 q 422 543 408 503 q 444 614 435 583 q 457 654 454 644 q 474 686 468 671 q 481 707 479 701 q 490 722 489 713 q 492 736 492 731 q 497 747 492 743 q 501 757 501 751 q 508 758 507 761 q 517 763 510 756 l 524 810 l 647 811 q 639 770 644 794 q 613 706 633 746 q 597 656 606 678 q 589 626 588 633 q 577 599 586 624 q 556 538 568 574 q 533 465 544 501 q 512 402 521 429 q 500 368 503 375 q 475 303 489 346 q 433 186 461 260 q 406 119 422 164 q 381 39 390 75 q 353 -39 365 -15 q 332 -67 342 -62 q 311 -74 322 -72 m 324 743 q 247 757 267 738 q 232 799 226 776 q 252 827 236 815 q 311 847 268 839 q 351 854 326 850 q 397 863 375 858 q 473 872 443 868 q 535 879 503 876 q 615 885 567 882 q 684 890 656 888 q 713 892 713 892 q 742 889 717 892 q 796 882 767 886 q 839 872 825 878 q 890 847 871 865 q 915 806 910 829 q 915 780 919 789 q 900 765 911 771 q 848 749 868 756 q 808 750 828 743 q 792 763 801 757 q 762 772 783 768 q 694 778 740 775 q 626 774 656 774 q 597 767 597 774 l 515 763 l 447 756 q 408 752 433 754 q 360 748 383 750 q 324 743 336 746 z "},"G":{"ha":686,"x_min":143,"x_max":847,"o":"m 221 -64 q 163 16 183 -36 q 144 113 143 68 q 159 290 143 199 q 201 461 175 382 q 240 563 219 511 q 283 660 261 614 q 326 739 306 707 q 415 857 369 813 q 483 915 460 901 q 576 945 522 935 q 682 944 631 956 q 753 917 718 935 q 815 872 789 899 q 839 843 831 858 q 847 811 847 828 q 828 771 847 790 q 785 744 808 751 q 749 753 761 738 q 714 795 731 781 q 679 817 697 810 q 638 826 664 826 q 583 817 613 826 q 528 786 554 808 q 502 763 518 778 q 469 726 486 747 q 438 679 451 704 q 372 549 399 615 q 324 406 344 483 q 303 327 314 374 q 283 235 292 281 q 271 154 274 189 q 274 78 267 106 q 303 41 281 50 q 365 42 325 32 q 438 70 401 50 q 510 122 475 90 q 572 196 544 153 q 613 282 597 243 q 630 344 629 321 q 606 365 631 367 q 515 369 549 364 q 468 397 481 375 q 449 428 450 401 q 475 471 449 454 q 540 486 499 483 q 626 484 582 489 q 696 464 669 479 q 738 419 726 449 q 751 356 750 389 q 746 293 751 322 q 712 199 733 244 q 654 106 690 153 q 597 44 633 76 q 522 -13 561 13 q 447 -54 482 -39 q 331 -90 392 -79 q 221 -64 271 -101 z "},"H":{"ha":797,"x_min":103,"x_max":1039,"o":"m 213 -126 q 199 -122 213 -126 q 169 -112 185 -117 q 144 -108 153 -108 q 113 -84 122 -103 q 108 -43 103 -65 q 117 -19 114 -37 q 119 10 119 -1 q 126 26 125 21 q 133 53 128 31 q 148 119 138 76 q 172 210 158 161 q 197 303 185 258 q 220 378 210 347 q 235 413 231 408 q 235 417 235 413 q 235 428 235 422 q 237 441 235 428 q 250 471 239 454 q 260 504 256 486 q 264 528 264 522 q 280 562 269 535 q 300 615 290 589 q 319 663 308 638 q 337 706 329 688 q 344 724 344 724 q 344 730 344 729 q 344 731 344 731 q 372 787 350 736 q 431 918 393 838 q 447 953 436 929 q 458 983 458 978 q 499 998 479 1004 q 535 974 519 992 q 558 940 551 956 l 572 918 l 521 818 q 483 747 499 779 q 467 710 467 715 q 460 693 467 710 q 446 651 454 676 q 429 600 438 625 q 400 528 414 557 q 386 494 386 500 q 415 499 386 497 q 486 500 443 500 q 574 501 529 500 q 656 502 619 501 q 706 506 692 503 l 778 513 l 817 636 q 846 731 828 675 q 878 825 864 786 q 925 915 900 889 q 967 940 950 940 q 983 933 971 940 q 1007 915 994 925 q 1022 897 1019 906 q 1038 863 1039 882 q 1015 811 1038 843 q 978 730 993 774 q 953 658 964 686 q 949 631 953 642 q 939 615 944 621 q 928 594 936 613 q 913 558 919 576 q 906 536 906 540 q 901 513 906 526 q 892 493 897 499 q 879 451 889 485 q 857 373 869 418 q 831 285 844 328 q 806 215 817 243 q 799 191 806 206 q 792 165 792 176 q 778 124 786 149 q 769 92 769 99 q 755 18 763 60 q 742 -56 747 -24 q 738 -92 738 -87 q 683 -82 701 -96 q 650 -62 665 -68 q 619 -24 624 -47 q 629 31 614 -1 q 647 85 636 42 q 668 172 657 129 q 686 225 676 193 q 705 288 696 257 q 721 342 714 319 q 731 367 728 364 q 731 376 731 372 q 731 381 731 381 q 703 385 728 383 q 640 387 678 388 q 557 384 601 386 q 472 376 513 382 q 428 376 457 376 q 389 376 400 376 q 363 376 374 376 q 353 376 353 376 q 342 349 350 372 q 324 292 335 325 q 303 224 314 258 q 285 160 293 189 q 275 119 278 132 q 260 57 269 94 q 241 -20 251 19 q 223 -89 231 -60 q 213 -126 215 -118 z "},"D":{"ha":815,"x_min":68,"x_max":949,"o":"m 294 -147 q 231 -147 268 -151 q 150 -131 193 -142 q 119 -114 128 -124 q 89 -78 110 -104 q 72 -31 75 -57 q 78 17 68 -4 q 114 42 89 38 q 141 37 125 44 q 175 18 157 29 q 238 -16 204 1 q 299 -29 271 -33 q 345 -24 318 -25 q 398 -19 372 -24 q 439 -4 424 -15 q 549 76 513 46 q 585 106 585 106 q 595 115 588 111 q 614 122 603 118 q 640 149 622 131 q 676 186 658 168 q 697 207 693 204 q 703 227 700 219 q 706 243 706 235 q 735 290 717 254 q 774 369 754 325 q 801 449 793 413 q 814 588 819 525 q 782 700 808 650 q 711 788 756 750 q 669 815 696 800 q 615 842 643 829 q 566 863 588 856 q 540 868 544 869 q 519 826 535 867 q 480 721 503 785 q 431 584 457 657 q 382 446 406 511 q 365 390 375 419 q 347 340 354 361 q 340 311 340 318 q 308 239 325 288 q 281 100 292 190 q 263 22 268 53 q 251 -8 257 -10 q 250 -22 251 -8 q 244 -39 249 -35 q 228 -50 244 -47 q 189 -43 211 -53 q 147 -6 167 -33 q 141 40 143 10 q 150 110 139 69 q 169 178 157 136 q 197 264 182 219 q 226 346 213 308 q 244 401 239 383 q 272 490 254 425 q 295 563 283 526 q 318 627 307 599 q 333 664 329 656 q 351 723 340 682 q 383 817 361 764 l 393 863 l 378 869 q 352 866 361 864 q 340 869 343 868 q 319 874 332 867 q 295 894 306 882 q 282 915 285 907 q 278 930 279 921 q 278 939 278 939 q 301 956 279 947 q 359 974 324 965 q 435 986 394 982 q 510 988 475 990 q 599 971 546 985 q 689 943 651 957 q 785 886 733 926 q 878 790 836 846 q 935 674 921 735 q 943 626 939 657 q 948 567 947 596 q 942 531 949 539 q 938 517 939 525 q 943 507 938 510 q 933 476 942 503 q 918 429 925 449 q 899 346 915 393 q 865 256 883 299 q 832 190 846 214 q 822 188 826 190 q 822 185 817 186 q 807 158 822 178 q 790 138 801 154 q 771 117 778 122 q 763 101 769 107 q 750 94 756 94 q 748 94 750 94 q 746 89 746 94 q 708 46 735 72 q 649 -8 682 19 q 582 -60 615 -36 q 521 -94 549 -83 q 492 -110 507 -104 q 463 -124 476 -117 q 422 -133 456 -129 q 352 -140 389 -137 q 294 -147 315 -143 z "},"S":{"ha":688,"x_min":178,"x_max":974,"o":"m 369 -90 q 329 -78 344 -83 q 314 -74 314 -74 q 312 -61 317 -67 q 292 -54 307 -56 q 249 -15 271 -40 q 210 36 226 10 q 188 75 193 63 q 189 101 178 96 q 215 113 200 106 q 248 129 231 124 q 276 111 265 135 q 333 57 294 79 q 420 31 371 35 q 519 47 469 26 q 556 90 553 63 q 535 153 558 117 q 523 171 531 164 q 501 189 515 178 q 460 225 486 200 q 422 243 439 235 q 385 261 404 251 q 335 292 363 272 q 283 337 307 313 q 247 383 260 361 q 219 441 225 404 q 222 519 214 478 q 247 594 229 561 q 278 645 256 614 q 328 710 300 676 q 381 770 356 743 q 422 807 407 797 q 446 830 433 818 q 458 842 458 842 q 463 849 460 849 q 467 849 467 849 q 497 863 474 853 q 549 899 521 872 q 707 959 642 943 q 810 975 772 975 l 810 975 l 810 975 q 878 956 844 974 q 935 913 911 939 q 964 853 960 886 q 955 773 974 819 q 903 685 936 726 q 836 625 871 644 q 770 621 797 608 q 744 660 743 633 q 752 686 744 671 q 794 740 760 701 q 842 833 839 806 q 817 865 844 861 q 785 864 808 868 q 734 853 761 860 q 687 840 707 847 q 667 831 667 833 q 667 826 667 831 q 661 824 667 822 q 642 815 658 824 q 604 792 626 806 q 560 763 582 778 q 524 738 539 749 q 507 724 508 726 q 475 696 504 708 q 426 649 447 679 q 378 571 406 618 q 344 502 354 539 q 344 443 335 465 q 383 399 351 421 q 468 346 414 378 q 557 290 515 319 q 628 234 599 261 q 665 189 657 207 q 685 135 682 165 q 685 76 689 104 q 676 29 682 47 q 647 -18 667 7 q 610 -42 626 -43 q 587 -51 594 -46 q 569 -61 579 -57 q 524 -74 560 -67 q 444 -87 488 -82 q 369 -90 401 -92 z "},"I":{"ha":568,"x_min":60,"x_max":856,"o":"m 251 -57 q 218 -37 242 -42 q 146 -36 194 -33 q 106 -33 126 -39 q 72 -17 85 -28 q 63 6 60 -6 q 101 42 64 22 q 199 63 139 61 l 257 64 l 271 92 q 280 125 276 107 q 293 175 283 143 q 310 229 299 194 q 333 303 321 264 q 356 375 346 343 q 368 419 365 407 q 383 462 374 432 q 402 523 393 492 q 414 568 411 554 q 461 722 450 678 q 467 767 472 765 q 440 765 461 767 q 394 762 419 764 q 350 757 369 760 q 326 751 331 754 q 303 755 319 742 q 282 782 286 768 q 282 806 281 794 q 290 821 283 817 q 331 840 300 829 q 399 858 361 850 q 469 871 438 867 q 517 881 493 874 q 554 900 540 889 q 578 907 567 904 q 603 908 590 910 q 641 901 614 901 q 699 903 668 901 q 808 898 776 910 q 849 867 839 886 q 846 823 856 840 q 813 807 836 806 q 778 802 800 804 q 719 799 756 800 q 621 779 628 790 q 612 768 615 774 q 603 756 608 763 q 597 723 604 750 q 578 665 589 696 q 561 614 572 647 q 538 545 550 581 q 517 481 526 510 q 503 443 507 453 q 494 416 497 431 q 489 394 490 401 q 456 281 469 326 q 433 201 443 235 q 415 135 424 167 q 396 65 407 104 q 419 67 396 65 q 479 72 443 69 q 568 81 544 79 q 596 77 592 82 q 604 60 600 72 q 601 -3 632 22 q 492 -26 569 -28 q 385 -31 419 -29 q 342 -37 351 -33 q 332 -51 332 -42 q 305 -78 333 -74 q 251 -57 276 -83 z "},"o":{"ha":503,"x_min":121,"x_max":583,"o":"m 233 10 q 205 17 215 10 q 179 36 194 24 q 137 96 153 64 q 125 151 121 128 q 128 173 129 163 q 128 183 128 183 q 124 192 121 190 q 129 200 126 194 q 135 215 138 200 q 144 263 132 226 q 176 333 156 300 q 201 370 185 347 q 238 416 218 393 q 275 453 258 439 q 340 500 310 482 q 400 525 369 518 q 463 532 431 532 q 517 510 496 532 q 562 472 549 496 q 579 411 575 449 q 571 309 583 369 q 503 169 558 249 q 435 92 468 119 q 361 40 401 64 q 299 17 332 21 q 233 10 265 13 m 375 179 q 419 238 406 206 q 447 313 432 269 q 455 340 453 321 q 456 378 457 360 q 446 400 454 397 q 421 405 433 410 q 389 386 408 400 q 312 306 347 351 q 263 196 276 261 q 270 144 258 161 q 309 134 282 126 q 375 179 336 142 z "},"p":{"ha":525,"x_min":24,"x_max":606,"o":"m 85 -324 q 69 -324 79 -324 q 51 -312 58 -325 q 35 -285 46 -306 q 31 -229 24 -265 q 42 -183 38 -206 q 46 -149 46 -160 q 49 -127 46 -143 q 53 -104 53 -111 q 64 -74 60 -93 q 68 -39 68 -54 q 85 -8 68 -22 q 90 19 85 3 q 94 42 94 36 q 113 110 99 61 q 149 222 128 160 q 192 344 171 285 q 229 446 213 404 q 257 518 246 485 q 268 565 268 551 q 271 574 268 571 q 283 589 274 578 q 320 599 297 603 q 358 585 343 596 q 374 552 369 567 q 374 507 379 538 q 364 469 374 486 q 347 441 354 451 q 342 432 339 431 q 452 473 403 469 q 535 456 501 476 q 588 401 569 436 q 606 326 606 367 q 594 282 606 310 q 569 230 583 254 q 547 197 556 206 q 536 188 542 197 q 525 168 531 179 q 488 137 514 154 q 436 109 463 119 q 399 103 410 99 q 395 100 399 103 q 392 90 392 97 q 372 79 392 88 q 326 64 353 71 q 278 57 300 57 q 236 68 249 57 q 230 60 233 65 q 226 50 226 54 q 220 24 226 42 q 206 -9 214 6 q 190 -24 197 -24 q 188 -28 190 -24 q 190 -39 185 -32 q 190 -55 190 -39 q 182 -82 189 -71 q 178 -115 182 -93 q 168 -149 174 -137 q 163 -181 168 -165 q 153 -197 158 -197 q 146 -215 147 -199 q 144 -237 144 -231 q 122 -298 143 -272 q 85 -324 101 -324 m 263 163 q 303 172 274 163 q 364 197 332 182 q 414 226 396 211 q 470 289 450 258 q 467 357 490 319 q 431 373 456 376 q 378 350 407 369 q 318 301 349 331 q 288 260 301 283 q 265 214 274 236 q 254 177 256 192 q 263 163 253 163 z "},"e":{"ha":464,"x_min":128,"x_max":575,"o":"m 407 28 q 319 1 365 4 q 232 13 272 -3 q 167 61 192 29 q 140 119 153 79 q 136 226 128 158 q 176 356 144 290 q 253 471 207 421 q 353 539 299 521 q 392 549 372 546 q 446 550 413 553 q 503 534 478 546 q 539 508 528 522 q 568 465 561 486 q 574 425 575 444 q 534 329 567 381 q 443 253 501 278 q 388 240 419 243 q 300 249 356 238 q 256 242 267 256 q 247 188 246 228 q 259 144 250 163 q 293 118 268 125 q 339 117 325 113 q 374 132 353 122 q 395 147 385 139 q 416 164 406 156 q 433 176 426 172 q 447 183 440 182 q 461 185 454 185 q 490 168 476 183 q 508 139 504 153 q 494 108 508 128 q 458 66 481 88 q 407 28 435 44 m 389 338 q 417 357 399 342 q 451 390 436 372 q 467 417 467 407 q 447 443 467 432 q 394 447 426 454 q 368 432 383 444 q 338 403 353 419 q 311 373 322 388 q 296 350 300 358 q 318 339 301 343 q 355 335 335 335 q 389 338 375 335 z "},"n":{"ha":638,"x_min":124,"x_max":672,"o":"m 615 33 q 565 47 585 36 q 532 89 544 57 q 527 135 526 111 q 531 183 528 160 q 533 222 533 206 q 533 233 533 225 q 533 249 533 242 q 523 274 531 269 q 497 272 515 279 q 434 235 468 258 q 363 183 400 213 q 288 119 326 153 q 242 65 257 86 q 213 44 228 44 q 189 47 201 39 q 163 67 176 56 q 140 95 153 78 q 124 118 126 113 q 127 158 124 140 q 138 196 131 176 q 157 240 146 215 q 167 260 163 250 q 179 283 172 271 q 195 328 185 303 q 215 375 206 353 q 239 438 231 411 q 253 494 247 464 q 254 503 251 497 q 263 510 257 508 l 264 510 l 265 510 q 302 512 275 517 q 343 496 329 507 q 371 431 372 471 q 329 325 369 390 q 309 284 319 303 q 299 258 299 265 q 310 267 299 258 q 336 287 321 275 q 363 306 351 299 q 393 331 369 313 q 444 371 417 350 q 489 403 472 392 q 528 426 504 414 q 557 438 551 438 q 591 428 571 438 q 628 405 611 418 q 649 381 646 392 q 647 366 649 375 q 646 350 646 357 q 645 297 644 328 q 646 234 646 265 q 640 178 646 203 q 642 176 640 178 q 644 169 643 174 q 644 165 643 168 q 644 161 644 161 q 651 142 647 151 q 660 120 654 132 q 672 90 665 108 q 652 55 671 72 q 615 33 633 38 z "},"t":{"ha":460,"x_min":139,"x_max":583,"o":"m 238 -1 q 204 17 222 1 q 172 53 186 33 q 153 88 157 74 q 149 94 153 90 q 146 99 146 99 q 140 135 140 103 q 143 208 139 168 q 153 272 147 249 q 174 333 160 294 q 197 401 188 371 l 235 482 l 179 497 q 163 508 169 500 q 157 522 157 517 q 169 554 157 533 q 188 575 182 575 q 213 574 194 574 q 250 575 232 574 q 272 578 268 576 q 283 585 278 581 q 292 600 289 590 q 304 624 299 615 q 319 649 310 632 q 335 679 329 667 q 356 714 342 692 q 371 738 363 724 q 392 761 379 751 q 433 777 404 772 q 482 764 461 782 q 494 738 493 750 q 483 706 496 725 q 458 663 472 682 q 431 621 443 644 q 422 586 408 590 q 500 592 436 582 q 558 583 540 599 q 579 544 576 568 q 572 504 583 511 q 508 497 561 497 q 451 491 475 492 q 417 490 428 490 q 393 489 399 489 q 376 486 388 489 q 360 477 365 483 q 350 460 356 471 q 333 431 344 454 q 306 379 322 407 q 273 267 286 321 q 250 161 260 214 q 252 123 246 135 q 288 108 258 111 q 332 109 303 107 q 381 117 361 111 q 413 131 396 124 q 443 147 429 139 q 468 162 456 154 q 481 169 481 169 q 501 166 488 181 q 519 135 514 151 q 513 95 519 118 q 461 47 506 72 q 336 0 399 8 q 238 -1 274 -8 z "},"w":{"ha":718,"x_min":150,"x_max":826,"o":"m 236 42 q 194 73 215 42 q 162 150 174 104 q 153 240 150 196 q 158 312 153 285 q 168 365 163 339 q 173 379 172 374 q 176 397 174 385 q 185 439 178 410 q 197 478 190 463 q 207 499 203 493 q 244 526 224 521 q 283 521 265 531 q 303 492 300 511 q 312 460 311 485 q 308 410 313 436 q 296 374 304 385 q 290 338 293 367 q 283 276 286 308 q 275 225 279 244 q 278 194 271 200 q 306 206 286 188 q 360 274 326 225 q 401 339 388 315 q 422 382 414 363 q 439 428 429 401 q 452 464 446 450 q 464 483 458 478 q 505 502 479 506 q 547 488 531 499 q 567 442 564 471 q 554 381 571 414 q 533 328 543 358 q 516 267 522 297 q 510 214 510 236 q 517 181 510 186 q 536 176 525 176 q 568 188 553 176 q 613 231 583 200 q 643 268 625 243 q 678 321 661 293 q 708 370 696 349 q 719 397 719 392 q 732 421 719 406 q 745 438 740 432 q 764 451 750 444 q 789 453 775 457 q 813 439 803 450 q 823 412 819 433 q 826 374 826 390 q 814 331 822 358 q 797 280 806 304 q 781 247 788 256 q 761 227 775 242 q 736 196 747 213 q 686 142 701 154 q 660 118 671 129 q 593 72 631 89 q 522 52 556 54 q 469 64 489 50 q 426 139 426 86 q 423 159 426 150 q 419 168 419 168 q 405 165 414 168 q 386 146 396 163 q 344 98 374 122 q 283 58 314 74 q 236 42 253 42 z "},"r":{"ha":500,"x_min":124,"x_max":635,"o":"m 165 38 q 138 63 153 47 q 128 106 124 78 q 139 174 132 144 q 156 243 146 204 q 170 300 158 260 q 199 388 182 340 q 233 477 215 435 q 265 540 251 519 q 310 554 281 554 q 351 543 340 554 q 361 499 367 531 q 322 403 356 468 q 305 367 315 386 q 290 337 294 349 q 293 326 286 325 q 324 362 301 342 q 371 401 346 382 q 418 436 396 421 q 449 456 440 451 q 474 467 460 463 q 494 475 489 472 q 565 487 526 490 q 611 463 603 483 q 620 446 613 451 q 628 440 628 440 q 634 436 633 440 q 635 432 635 432 q 616 404 635 422 q 575 385 597 386 q 543 378 557 383 q 510 364 529 372 q 415 310 457 333 q 328 238 372 286 q 307 217 318 226 q 285 189 296 207 q 271 158 278 182 q 259 113 264 135 q 254 88 254 92 q 250 74 254 88 q 236 49 246 61 q 203 21 219 26 q 165 38 188 15 z "},"k":{"ha":519,"x_min":103,"x_max":631,"o":"m 178 -4 q 149 19 167 0 q 117 60 131 38 q 103 99 103 83 q 122 153 110 114 q 149 240 133 192 q 166 276 160 256 q 178 313 172 296 q 203 369 189 338 q 230 435 217 401 q 254 493 243 468 q 287 566 274 535 q 313 628 300 597 q 342 696 326 658 q 380 781 363 739 q 410 857 397 824 q 426 904 424 890 q 429 920 425 915 q 440 926 433 925 q 463 932 447 931 q 483 933 478 933 q 517 906 500 931 q 535 865 535 882 q 513 783 535 843 q 451 640 492 722 q 378 479 403 536 q 346 399 354 422 q 339 368 338 375 q 350 372 339 368 q 383 392 361 376 q 418 417 399 401 q 456 444 438 432 q 486 460 475 457 q 506 474 493 465 q 529 489 518 482 q 571 501 556 508 q 599 478 586 494 q 610 440 614 460 q 567 388 607 419 q 501 345 536 365 q 438 310 467 325 q 397 285 410 294 q 410 267 397 285 q 433 232 422 249 q 461 176 444 210 q 486 128 478 142 q 517 99 501 106 q 565 103 533 92 q 601 102 586 108 q 625 82 615 96 q 631 60 631 71 q 613 33 631 49 q 537 -12 574 7 q 467 -8 500 -31 q 412 42 438 14 q 354 113 386 71 q 346 136 354 118 q 335 157 338 154 q 323 177 329 168 q 317 186 317 186 q 306 211 313 201 q 290 222 300 221 q 278 208 285 218 q 264 185 271 199 q 247 144 256 164 q 233 101 239 124 q 226 46 228 78 q 214 13 228 31 q 178 -4 200 -4 z "},"#":{"ha":776,"x_min":79,"x_max":985,"o":"m 558 -206 q 512 -192 532 -212 q 483 -131 492 -171 q 486 -39 475 -90 q 497 -6 493 -22 q 501 19 501 10 q 515 69 504 31 q 542 157 526 107 q 574 256 558 207 q 602 340 590 306 q 617 378 614 374 q 626 388 622 378 q 631 407 631 397 q 635 432 631 418 q 646 451 640 446 q 649 467 646 458 q 653 482 653 476 q 656 493 653 488 q 660 504 660 499 q 685 562 668 519 q 726 662 703 604 q 772 781 749 719 q 817 899 796 843 q 850 990 838 954 q 863 1032 863 1026 q 878 1055 863 1043 q 904 1067 893 1067 q 915 1072 908 1071 q 926 1074 921 1074 q 932 1068 926 1074 q 949 1051 938 1063 q 972 1023 960 1042 q 985 988 985 1004 q 981 956 985 969 q 964 915 976 942 q 925 833 951 889 q 908 794 921 822 q 881 732 896 767 q 852 665 867 697 q 828 610 838 632 q 819 585 819 588 q 815 568 819 579 q 804 540 810 557 q 789 508 799 529 q 769 462 779 486 q 751 420 758 438 q 744 400 744 403 q 744 389 744 394 q 738 378 743 383 q 731 370 732 378 q 731 363 731 363 q 708 289 731 349 q 685 210 699 258 q 655 106 671 161 q 625 -1 639 51 q 602 -92 611 -53 q 593 -146 593 -131 q 581 -190 593 -179 q 558 -206 569 -200 m 194 240 q 174 241 186 240 q 146 247 161 242 q 113 256 125 247 q 94 274 100 264 q 97 305 79 294 q 167 321 115 315 q 229 328 182 325 q 341 333 276 331 q 477 336 406 335 q 615 338 549 338 q 730 340 681 339 q 797 340 779 340 q 846 335 833 340 q 874 314 858 329 q 884 271 894 293 q 842 254 874 249 q 810 251 832 253 q 764 247 789 250 q 719 247 758 247 q 619 245 679 246 q 491 244 558 244 q 360 242 424 243 q 253 241 297 242 q 194 240 208 240 m 214 -206 q 167 -192 188 -212 q 139 -131 147 -171 q 142 -39 131 -90 q 153 -6 149 -22 q 157 19 157 10 q 171 69 160 31 q 198 157 182 107 q 230 256 214 207 q 258 340 246 306 q 272 378 269 374 q 282 388 278 378 q 286 407 286 397 q 291 432 286 418 q 301 451 296 446 q 305 467 301 458 q 308 482 308 476 q 312 493 308 488 q 315 504 315 499 q 341 562 324 519 q 381 662 358 604 q 428 781 404 719 q 472 899 451 843 q 506 990 493 954 q 518 1032 518 1026 q 533 1055 518 1043 q 560 1067 549 1067 q 570 1072 564 1071 q 582 1074 576 1074 q 588 1068 582 1074 q 604 1051 593 1063 q 628 1023 615 1042 q 640 988 640 1004 q 636 956 640 969 q 619 915 632 942 q 581 833 607 889 q 564 794 576 822 q 537 732 551 767 q 508 665 522 697 q 484 610 493 632 q 475 585 475 588 q 470 568 475 579 q 460 540 465 557 q 444 508 454 529 q 424 462 435 486 q 407 420 414 438 q 400 400 400 403 q 399 389 400 394 q 393 378 399 383 q 387 370 388 378 q 386 363 386 363 q 364 289 386 349 q 340 210 354 258 q 310 106 326 161 q 281 -1 294 51 q 258 -92 267 -53 q 249 -146 249 -131 q 237 -190 249 -179 q 214 -206 225 -200 m 279 519 q 258 520 271 519 q 231 526 246 521 q 198 534 210 526 q 181 551 186 542 q 183 583 165 572 q 251 600 200 594 q 314 607 267 604 q 426 612 361 610 q 563 615 492 614 q 701 617 635 617 q 816 619 767 618 q 883 619 865 619 q 932 614 919 619 q 960 593 944 608 q 969 550 981 572 q 926 533 958 528 q 896 531 917 532 q 850 526 875 529 q 805 526 844 526 q 705 524 765 525 q 576 523 644 524 q 445 522 508 522 q 338 520 382 521 q 279 519 293 519 z "}}}
